<svg width="20" height="16" viewBox="0 0 20 16" fill="none" xmlns="http://www.w3.org/2000/svg">
<path d="M16.2856 1.51782V13.1071C16.2854 13.2053 16.322 13.3 16.3881 13.3725C16.4543 13.4451 16.5452 13.4902 16.6429 13.4991C16.7407 13.508 16.8383 13.4799 16.9164 13.4204C16.9945 13.361 17.0475 13.2744 17.065 13.1778L17.0713 13.1071V2.49997H18.0534C18.3985 2.49998 18.731 2.62974 18.9848 2.8635C19.2387 3.09726 19.3953 3.41791 19.4237 3.76182L19.4284 3.87496V13.3035C19.4285 13.9558 19.1789 14.5833 18.731 15.0574C18.283 15.5315 17.6706 15.8163 17.0194 15.8532L16.8749 15.8571H3.12486C2.47261 15.8572 1.84507 15.6076 1.37096 15.1597C0.896863 14.7117 0.612145 14.0993 0.575218 13.4481L0.571289 13.3035V1.51782C0.571302 1.17274 0.701066 0.840287 0.934823 0.586444C1.16858 0.3326 1.48924 0.175932 1.83315 0.147537L1.94629 0.142822H14.9106C15.2557 0.142835 15.5881 0.272599 15.842 0.506356C16.0958 0.740113 16.2525 1.06077 16.2809 1.40468L16.2856 1.51782V13.1071V1.51782ZM6.65822 7.21739H4.69629C4.35121 7.21741 4.01875 7.34717 3.76491 7.58093C3.51107 7.81468 3.3544 8.13534 3.326 8.47925L3.32129 8.59239V10.5535C3.3213 10.8986 3.45107 11.2311 3.68482 11.4849C3.91858 11.7388 4.23924 11.8954 4.58315 11.9238L4.69629 11.9285H6.65822C7.00342 11.9285 7.33598 11.7986 7.58985 11.5647C7.84371 11.3308 8.0003 11.0099 8.0285 10.6659L8.03243 10.5535V8.59239C8.03262 8.24718 7.90294 7.91453 7.66916 7.66052C7.43539 7.40651 7.11462 7.24973 6.77058 7.22132L6.65822 7.21739ZM12.9463 10.75H10.1963L10.1161 10.7555C9.9751 10.7749 9.84585 10.8447 9.75229 10.952C9.65873 11.0593 9.60718 11.1969 9.60718 11.3393C9.60718 11.4816 9.65873 11.6192 9.75229 11.7265C9.84585 11.8338 9.9751 11.9036 10.1161 11.923L10.1963 11.9285H12.9463L13.0264 11.923C13.1675 11.9036 13.2967 11.8338 13.3903 11.7265C13.4839 11.6192 13.5354 11.4816 13.5354 11.3393C13.5354 11.1969 13.4839 11.0593 13.3903 10.952C13.2967 10.8447 13.1675 10.7749 13.0264 10.7555L12.9463 10.75ZM4.69629 8.39596H6.65822C6.70237 8.396 6.74522 8.4109 6.77985 8.43827C6.81449 8.46564 6.8389 8.50388 6.84915 8.54682L6.85465 8.59239V10.5535C6.85457 10.5978 6.83956 10.6407 6.81203 10.6754C6.78451 10.71 6.74609 10.7344 6.703 10.7445L6.65822 10.75H4.69629C4.65204 10.7499 4.6091 10.7349 4.57445 10.7074C4.53979 10.6798 4.51545 10.6414 4.50536 10.5983L4.49986 10.5535V8.59239C4.49976 8.548 4.51469 8.50489 4.54223 8.47007C4.56977 8.43526 4.60828 8.4108 4.6515 8.40068L4.69629 8.39596H6.65822H4.69629ZM12.9463 7.21739H10.1963L10.1161 7.22211C9.97451 7.24088 9.84451 7.31047 9.75035 7.41793C9.65619 7.52539 9.60428 7.66341 9.60428 7.80629C9.60428 7.94917 9.65619 8.08718 9.75035 8.19464C9.84451 8.3021 9.97451 8.37169 10.1161 8.39046L10.1963 8.39596H12.9463L13.0264 8.39046C13.1681 8.37169 13.2981 8.3021 13.3922 8.19464C13.4864 8.08718 13.5383 7.94917 13.5383 7.80629C13.5383 7.66341 13.4864 7.52539 13.3922 7.41793C13.2981 7.31047 13.1681 7.24088 13.0264 7.22211L12.9463 7.21739ZM12.9463 3.67618H3.91057L3.83043 3.68168C3.68939 3.70109 3.56014 3.7709 3.46658 3.87822C3.37301 3.98553 3.32147 4.12309 3.32147 4.26546C3.32147 4.40784 3.37301 4.5454 3.46658 4.65271C3.56014 4.76003 3.68939 4.82984 3.83043 4.84925L3.91057 4.85475H12.9463L13.0264 4.84925C13.1675 4.82984 13.2967 4.76003 13.3903 4.65271C13.4839 4.5454 13.5354 4.40784 13.5354 4.26546C13.5354 4.12309 13.4839 3.98553 13.3903 3.87822C13.2967 3.7709 13.1675 3.70109 13.0264 3.68168L12.9463 3.67618Z" fill="#787E9E"/>
</svg>
