<svg width="22" height="18" viewBox="0 0 22 18" fill="none" xmlns="http://www.w3.org/2000/svg">
<path d="M20.1667 0.75H1.83333C0.825 0.75 0 1.575 0 2.58333V15.4167C0 16.425 0.825 17.25 1.83333 17.25H20.1667C21.175 17.25 21.9908 16.425 21.9908 15.4167L22 2.58333C22 1.575 21.175 0.75 20.1667 0.75ZM7.33333 3.5C8.855 3.5 10.0833 4.72833 10.0833 6.25C10.0833 7.77167 8.855 9 7.33333 9C5.81167 9 4.58333 7.77167 4.58333 6.25C4.58333 4.72833 5.81167 3.5 7.33333 3.5ZM12.8333 14.5H1.83333V13.5833C1.83333 11.75 5.5 10.7417 7.33333 10.7417C9.16667 10.7417 12.8333 11.75 12.8333 13.5833V14.5ZM16.3625 10.8333H17.8658L19.25 12.6667L17.4258 14.4908C16.2114 13.5807 15.3317 12.295 14.9233 10.8333C14.7583 10.2467 14.6667 9.6325 14.6667 9C14.6667 8.3675 14.7583 7.75333 14.9233 7.16667C15.3293 5.70393 16.2095 4.41742 17.4258 3.50917L19.25 5.33333L17.8658 7.16667H16.3625C16.1608 7.74417 16.0417 8.35833 16.0417 9C16.0417 9.64167 16.1608 10.2558 16.3625 10.8333Z" fill="#787E9E"/>
</svg>
