<svg width="19" height="17" viewBox="0 0 19 17" fill="none" xmlns="http://www.w3.org/2000/svg">
<path d="M12.4231 5.17391V4.06522H11.3269C10.9393 4.06522 10.5676 4.22096 10.2935 4.49819C10.0194 4.77542 9.86538 5.15142 9.86538 5.54348V11.4565C9.86538 11.8486 10.0194 12.2246 10.2935 12.5018C10.5676 12.779 10.9393 12.9348 11.3269 12.9348H12.4231V11.8261C12.4231 11.434 12.5771 11.058 12.8512 10.7808C13.1252 10.5036 13.497 10.3478 13.8846 10.3478H17.5385C17.9261 10.3478 18.2978 10.5036 18.5719 10.7808C18.846 11.058 19 11.434 19 11.8261V15.5217C19 15.9138 18.846 16.2898 18.5719 16.567C18.2978 16.8443 17.9261 17 17.5385 17H13.8846C13.497 17 13.1252 16.8443 12.8512 16.567C12.5771 16.2898 12.4231 15.9138 12.4231 15.5217V14.413H11.3269C10.5524 14.4106 9.81032 14.0983 9.26266 13.5444C8.71499 12.9905 8.40625 12.2399 8.40385 11.4565V9.23913H5.84615V9.97826C5.84615 10.3703 5.69217 10.7463 5.41808 11.0235C5.14399 11.3008 4.77224 11.4565 4.38462 11.4565H1.46154C1.07391 11.4565 0.702166 11.3008 0.428075 11.0235C0.153983 10.7463 0 10.3703 0 9.97826V7.02174C0 6.62968 0.153983 6.25368 0.428075 5.97645C0.702166 5.69922 1.07391 5.54348 1.46154 5.54348H4.38462C4.77224 5.54348 5.14399 5.69922 5.41808 5.97645C5.69217 6.25368 5.84615 6.62968 5.84615 7.02174V7.76087H8.40385V5.54348C8.40625 4.76011 8.71499 4.00952 9.26266 3.45559C9.81032 2.90167 10.5524 2.58939 11.3269 2.58696H12.4231V1.47826C12.4231 1.0862 12.5771 0.7102 12.8512 0.432973C13.1252 0.155745 13.497 0 13.8846 0H17.5385C17.9261 0 18.2978 0.155745 18.5719 0.432973C18.846 0.7102 19 1.0862 19 1.47826V5.17391C19 5.56597 18.846 5.94197 18.5719 6.2192C18.2978 6.49643 17.9261 6.65217 17.5385 6.65217H13.8846C13.497 6.65217 13.1252 6.49643 12.8512 6.2192C12.5771 5.94197 12.4231 5.56597 12.4231 5.17391Z" fill="#787E9E"/>
</svg>
