<svg width="146" height="146" viewBox="0 0 146 146" fill="none" xmlns="http://www.w3.org/2000/svg">
<path d="M73 9.7334L0 43.8001L19.4667 52.5601V69.1067C13.6267 71.0534 9.73333 76.8934 9.73333 82.7334C9.73333 88.5734 13.6267 94.4134 19.4667 96.3601V97.3334L10.7067 117.773C7.78667 126.533 9.73333 136.267 24.3333 136.267C38.9333 136.267 40.88 126.533 37.96 117.773L29.2 97.3334C35.04 94.4134 38.9333 89.5467 38.9333 82.7334C38.9333 75.9201 35.04 71.0534 29.2 69.1067V57.4267L73 77.8667L146 43.8001L73 9.7334ZM115.827 73.0001L72.0267 92.4667L48.6667 81.7601V82.7334C48.6667 89.5467 45.7467 95.3867 40.88 100.253L46.72 113.88V114.853C47.6933 118.747 48.6667 122.64 47.6933 126.533C54.5067 129.453 62.2933 131.4 72.0267 131.4C104.147 131.4 115.827 111.933 115.827 102.2V73.0001Z" fill="white"/>
</svg>
