<svg width="174" height="138" viewBox="0 0 174 138" fill="none" xmlns="http://www.w3.org/2000/svg">
<path d="M50.025 23.7188C50.025 32.0473 43.2009 38.8125 34.8 38.8125C26.3909 38.8125 19.575 32.0473 19.575 23.7188C19.575 15.3821 26.3909 8.625 34.8 8.625C43.2009 8.625 50.025 15.3821 50.025 23.7188ZM56.6587 52.909C48.5841 60.0246 43.5 70.4016 43.5 81.9375C43.5 91.1824 46.5178 99.6727 52.2 106.33V112.125C52.2 116.896 48.3122 120.75 43.5 120.75H26.1C21.296 120.75 17.4 116.896 17.4 112.125V104.902C7.11225 100.05 0 89.673 0 77.625C0 60.941 13.6318 47.4375 30.45 47.4375H39.15C45.4303 47.4375 51.7106 49.459 56.6587 52.909ZM17.4 66.2238C14.6921 69.2426 13.05 73.2586 13.05 77.625C13.05 81.9914 14.6921 86.0074 17.4 89.0262V66.2238ZM121.8 112.125V106.33C127.237 99.6727 130.5 91.1824 130.5 81.9375C130.5 70.4016 125.416 60.0246 117.341 52.909C122.289 49.459 128.325 47.4375 134.85 47.4375H143.55C160.379 47.4375 174 60.941 174 77.625C174 89.673 166.877 100.05 156.6 104.902V112.125C156.6 116.896 152.712 120.75 147.9 120.75H130.5C125.688 120.75 121.8 116.896 121.8 112.125ZM156.6 89.0262C159.074 86.0074 160.95 81.9914 160.95 77.625C160.95 73.2586 159.074 69.2426 156.6 66.2238V89.0262ZM154.425 23.7188C154.425 32.0473 147.601 38.8125 139.2 38.8125C130.799 38.8125 123.975 32.0473 123.975 23.7188C123.975 15.3821 130.799 8.625 139.2 8.625C147.601 8.625 154.425 15.3821 154.425 23.7188ZM69.6 25.875C69.6 16.3471 77.4028 8.625 87 8.625C96.5972 8.625 104.4 16.3471 104.4 25.875C104.4 35.3895 96.5972 43.125 87 43.125C77.4028 43.125 69.6 35.3895 69.6 25.875ZM121.8 81.9375C121.8 93.9855 114.677 104.363 104.4 109.214V120.75C104.4 125.521 100.512 129.375 95.7 129.375H78.3C73.4878 129.375 69.6 125.521 69.6 120.75V109.214C59.3231 104.363 52.2 93.9855 52.2 81.9375C52.2 65.2535 65.8209 51.75 82.65 51.75H91.35C108.179 51.75 121.8 65.2535 121.8 81.9375ZM69.6 93.3387V70.5363C66.8812 73.5551 65.25 77.5711 65.25 81.9375C65.25 86.3039 66.8812 90.3199 69.6 93.3387ZM104.4 70.5363V93.3387C106.874 90.293 108.75 86.3039 108.75 81.9375C108.75 77.5711 106.874 73.5551 104.4 70.5363Z" fill="white"/>
</svg>
