<svg width="151" height="151" viewBox="0 0 151 151" fill="none" xmlns="http://www.w3.org/2000/svg">
<path d="M51.7332 19.4035C52.2502 19.0586 52.8577 18.8745 53.4792 18.8745C54.1006 18.8745 54.7081 19.0586 55.2251 19.4035L74.1001 31.9868C74.5308 32.2742 74.8839 32.6634 75.1281 33.12C75.3723 33.5766 75.5001 34.0864 75.5 34.6041V59.7708C75.5 60.6051 75.1686 61.4053 74.5786 61.9953C73.9887 62.5852 73.1885 62.9166 72.3542 62.9166H59.7708V40.8958H47.1875V62.9166H34.6042C33.7698 62.9166 32.9697 62.5852 32.3797 61.9953C31.7898 61.4053 31.4583 60.6051 31.4583 59.7708V34.6041C31.4583 34.0864 31.586 33.5766 31.8302 33.12C32.0744 32.6634 32.4275 32.2742 32.8582 31.9868L51.7332 19.4035ZM105.398 38.1652C105.873 37.8938 106.411 37.751 106.958 37.751C107.506 37.751 108.043 37.8938 108.519 38.1652L130.539 50.7486C131.021 51.0236 131.421 51.421 131.7 51.9005C131.978 52.3801 132.125 52.9247 132.125 53.4791V84.9375C132.125 85.7718 131.794 86.572 131.204 87.1619C130.614 87.7519 129.813 88.0833 128.979 88.0833H113.25V62.9166H100.667V88.0833H84.9375C84.1032 88.0833 83.303 87.7519 82.7131 87.1619C82.1231 86.572 81.7917 85.7718 81.7917 84.9375V53.4791C81.7918 52.9247 81.9386 52.3801 82.217 51.9005C82.4955 51.421 82.8957 51.0236 83.3772 50.7486L105.398 38.1652ZM20.6146 88.4168L45.7813 75.8334C46.218 75.6153 46.6994 75.5017 47.1875 75.5017C47.6756 75.5017 48.157 75.6153 48.5937 75.8334L73.7604 88.4168C74.2828 88.6779 74.7223 89.0792 75.0295 89.5759C75.3368 90.0726 75.4997 90.6451 75.5 91.2291V128.979C75.5 129.813 75.1686 130.614 74.5786 131.204C73.9887 131.794 73.1885 132.125 72.3542 132.125H53.4792V103.812H40.8958V132.125H22.0208C21.1865 132.125 20.3864 131.794 19.7964 131.204C19.2064 130.614 18.875 129.813 18.875 128.979V91.2291C18.8753 90.6451 19.0382 90.0726 19.3455 89.5759C19.6527 89.0792 20.0922 88.6779 20.6146 88.4168Z" fill="white"/>
</svg>
